<svg class="svg-logo" xmlns="http://www.w3.org/2000/svg" fill="none" viewBox="0 0 182 23">
  <path
    fill="currentColor"
    d="m56.098.535-9.466 20.92h1.996l2.51-5.598h11.799l.054.124 2.426 5.474h2.117L58.07.535zm-4.205 13.587.13-.291 5.033-11.226 5.13 11.517zM16.048 12.794c0 2.326-.59 4.126-1.752 5.348-1.168 1.228-2.796 1.85-4.842 1.85-2.087 0-3.743-.65-4.92-1.929-1.169-1.274-1.762-3.097-1.762-5.42V.688H.793v12.109c0 2.857.785 5.093 2.33 6.648C4.67 21 6.779 21.787 9.392 21.787c2.633 0 4.752-.793 6.298-2.358 1.546-1.568 2.33-3.861 2.33-6.816V.685h-1.976v12.109zM39.263 12.272c-1.066-.909-2.802-1.633-5.159-2.15-2.29-.493-3.806-1.041-4.637-1.672-.846-.643-1.276-1.543-1.276-2.676 0-1.05.443-1.934 1.32-2.628.858-.683 2.002-1.028 3.395-1.028 2.172 0 4.215.743 6.076 2.21l1.142-1.512C38.047 1.203 35.639.383 32.967.383c-1.96 0-3.593.535-4.86 1.587-1.257 1.041-1.894 2.393-1.894 4.015 0 1.641.539 2.915 1.604 3.79 1.09.89 2.887 1.617 5.343 2.15 2.19.454 3.642.982 4.442 1.612.815.644 1.228 1.533 1.228 2.644 0 1.132-.465 2.07-1.383 2.78-.897.702-2.089 1.057-3.543 1.057-1.459 0-2.783-.25-3.941-.744-1.105-.467-2.213-1.195-3.3-2.163l-1.215 1.437c2.434 2.126 5.25 3.204 8.365 3.204 2.058 0 3.767-.539 5.073-1.604 1.296-1.054 1.953-2.47 1.953-4.21.002-1.538-.529-2.772-1.576-3.666M76.478 21.085h4.537V13.1h9.84V8.974h-9.84V4.585h11.167V.46H76.478zM103.116.313l-8.839 20.772h4.626l1.885-4.626h8.722l1.885 4.626h4.743L107.299.313zm-.706 12.14 2.739-6.69 2.739 6.69zM130.403 17.255c-3.535 0-5.982-2.946-5.982-6.483v-.056c0-3.537 2.504-6.424 5.982-6.424 2.063 0 3.683.882 5.274 2.328l2.887-3.33c-1.915-1.885-4.243-3.183-8.132-3.183-6.335 0-10.755 4.802-10.755 10.667v.059c0 5.922 4.509 10.606 10.578 10.606 3.979 0 6.335-1.413 8.457-3.682l-2.889-2.918c-1.618 1.474-3.061 2.416-5.42 2.416M143.46 4.644h6.276v16.441h4.539V4.644h6.274V.459H143.46zM174.551 8.74c-3.566-.914-4.45-1.357-4.45-2.711v-.057c0-1.002.913-1.798 2.652-1.798s3.535.768 5.363 2.033l2.356-3.417c-2.091-1.68-4.656-2.624-7.661-2.624-4.213 0-7.219 2.476-7.219 6.217v.059c0 4.095 2.68 5.243 6.837 6.306 3.448.883 4.154 1.472 4.154 2.622v.059c0 1.208-1.119 1.945-2.976 1.945-2.356 0-4.302-.971-6.156-2.504l-2.683 3.213c2.476 2.21 5.628 3.3 8.752 3.3 4.448 0 7.572-2.3 7.572-6.396v-.058c-.002-3.596-2.359-5.1-6.541-6.19"
  ></path>
</svg>