<?xml version="1.0" standalone="no"?>
<!DOCTYPE svg PUBLIC "-//W3C//DTD SVG 20010904//EN"
 "http://www.w3.org/TR/2001/REC-SVG-20010904/DTD/svg10.dtd">
<svg version="1.0" xmlns="http://www.w3.org/2000/svg"
 width="512.000000pt" height="512.000000pt" viewBox="0 0 512.000000 512.000000"
 preserveAspectRatio="xMidYMid meet">
<metadata>
Created by potrace 1.14, written by Peter Selinger 2001-2017
</metadata>
<g transform="translate(0.000000,512.000000) scale(0.100000,-0.100000)"
fill="#000000" stroke="none">
<path d="M2188 5113 c7 -3 16 -2 19 1 4 3 -2 6 -13 5 -11 0 -14 -3 -6 -6z"/>
<path d="M2193 5100 c-235 -36 -433 -93 -641 -182 -63 -26 -119 -45 -124 -41
-6 3 -8 1 -5 -4 8 -13 -17 -25 -36 -17 -7 2 -21 -2 -32 -11 -20 -15 -20 -15 0
-9 11 3 2 -6 -20 -20 -44 -28 -60 -33 -49 -14 5 7 -8 3 -27 -9 -18 -12 -34
-27 -34 -33 0 -11 -24 -30 -38 -30 -5 0 -5 6 -1 13 4 7 3 9 -2 4 -5 -5 -9 -14
-9 -20 0 -5 -6 -12 -14 -15 -9 -3 -11 0 -6 9 5 8 4 11 -1 6 -5 -5 -9 -14 -9
-20 0 -7 -8 -11 -17 -11 -10 1 -16 -3 -15 -8 1 -6 -4 -13 -12 -16 -10 -3 -11
0 -5 9 7 12 5 12 -9 1 -9 -8 -15 -19 -14 -24 1 -6 -4 -13 -12 -16 -9 -3 -11 0
-6 9 5 8 4 11 -1 6 -5 -5 -9 -14 -9 -20 0 -7 -8 -12 -17 -12 -20 0 -82 -44
-74 -52 7 -8 -13 -33 -26 -33 -6 0 -4 8 3 18 7 9 1 6 -14 -7 -15 -14 -25 -27
-22 -29 7 -7 -15 -32 -27 -32 -6 0 -5 8 3 18 7 9 -13 -8 -44 -38 -57 -55 -67
-67 -44 -54 6 4 -10 -16 -38 -45 -50 -52 -62 -61 -49 -38 4 6 -16 -10 -45 -38
-48 -47 -69 -72 -36 -45 8 7 15 8 15 2 0 -12 -25 -34 -32 -27 -3 3 -13 -5 -24
-17 -10 -12 -13 -18 -6 -14 6 4 12 3 12 -2 0 -12 -25 -33 -32 -27 -3 3 -11 -2
-19 -12 -9 -11 -10 -14 -1 -9 6 4 12 3 12 -2 0 -13 -25 -33 -32 -26 -3 3 -16
-9 -29 -27 -13 -18 -17 -29 -10 -24 9 5 12 3 9 -6 -3 -8 -11 -14 -19 -14 -8 0
-13 -8 -11 -19 2 -10 -1 -15 -6 -12 -5 3 -16 -2 -23 -11 -12 -14 -12 -16 0 -9
9 6 12 5 9 -5 -3 -8 -10 -13 -16 -12 -5 1 -9 -5 -8 -15 0 -9 -5 -16 -12 -14
-8 1 -11 -2 -8 -7 9 -14 -95 -192 -107 -184 -5 3 -7 1 -4 -5 9 -13 -2 -44 -14
-37 -4 3 -13 -3 -18 -14 -14 -25 -14 -41 0 -21 8 11 9 9 3 -10 -10 -37 -33
-78 -34 -60 0 8 -9 -1 -20 -20 -22 -40 -27 -68 -5 -30 24 42 17 9 -15 -69 -70
-170 -131 -410 -156 -611 -19 -154 -18 -495 1 -647 27 -203 88 -440 155 -603
32 -76 39 -112 15 -70 -20 35 -19 18 2 -25 9 -19 20 -30 23 -24 4 5 19 -17 34
-51 14 -34 23 -66 20 -72 -4 -7 -2 -8 4 -4 14 8 66 -90 56 -106 -4 -7 -3 -8 4
-4 6 3 16 -2 21 -13 14 -26 14 -34 -1 -25 -7 4 -8 3 -4 -5 4 -6 11 -9 16 -6
11 7 33 -32 25 -45 -3 -5 0 -12 6 -16 8 -5 9 -3 4 6 -6 9 -4 11 4 6 7 -5 10
-14 7 -22 -3 -8 0 -13 6 -11 6 1 13 -4 16 -12 3 -10 0 -11 -9 -5 -12 6 -12 5
0 -9 8 -10 16 -15 19 -13 5 6 42 -37 42 -49 0 -3 -6 -3 -13 1 -8 6 -8 3 1 -9
8 -9 19 -15 24 -14 6 1 13 -4 16 -12 3 -10 0 -11 -9 -5 -12 7 -12 5 -1 -9 8
-9 19 -15 24 -14 6 1 13 -4 16 -12 3 -9 0 -11 -9 -6 -8 5 -6 -1 5 -13 10 -12
23 -20 28 -19 6 1 13 -4 16 -12 3 -9 0 -11 -9 -6 -8 5 -3 -4 10 -18 13 -15 27
-24 31 -22 4 3 16 -7 25 -21 11 -18 13 -24 4 -19 -8 5 -3 -4 10 -18 26 -29 37
-35 25 -14 -4 6 7 -1 24 -17 37 -34 43 -49 9 -20 l-22 19 19 -22 c10 -13 22
-20 26 -18 4 2 15 -4 25 -15 10 -11 14 -20 9 -20 -4 0 11 -20 35 -44 24 -24
49 -42 55 -40 7 3 21 -5 32 -17 12 -14 13 -19 4 -14 -9 5 -8 0 4 -13 20 -23
32 -29 20 -11 -4 8 0 7 15 -1 12 -6 19 -15 17 -19 -3 -5 4 -17 16 -27 12 -11
18 -13 14 -7 -4 7 -3 13 2 13 13 0 33 -25 26 -32 -3 -3 3 -5 13 -5 9 1 18 -5
18 -13 0 -8 7 -15 15 -15 8 0 29 -10 45 -23 17 -13 23 -20 15 -16 -9 4 -12 3
-7 -2 5 -5 16 -9 25 -9 9 0 16 -6 14 -13 -1 -8 2 -11 8 -7 5 3 22 -2 38 -13
117 -82 375 -205 558 -267 282 -95 477 -125 815 -125 353 0 537 29 829 131
174 60 191 65 170 50 -25 -18 2 -12 40 9 19 11 28 19 20 20 -13 0 173 100 186
100 3 0 2 -5 -2 -11 -4 -8 0 -7 15 1 12 6 19 15 16 20 -3 4 21 23 52 42 72 41
78 44 68 28 -5 -9 -4 -11 4 -6 6 4 9 11 6 16 -3 4 6 15 20 24 35 23 45 19 15
-5 l-25 -21 25 14 c14 9 25 22 25 29 0 8 10 15 23 15 25 1 62 31 59 46 -1 6 4
13 12 16 9 3 11 0 6 -9 -10 -16 47 24 65 46 7 8 9 15 5 15 -4 0 -2 7 5 15 18
21 35 19 19 -2 -26 -33 125 105 196 178 39 40 60 65 48 55 -32 -27 -29 -5 4
25 14 13 23 17 18 9 -4 -8 6 -2 23 14 32 30 41 43 22 31 -5 -3 -10 -2 -10 3 0
12 25 33 32 27 3 -3 13 5 24 17 10 12 13 18 5 13 -9 -5 -12 -3 -9 6 3 8 10 13
16 12 5 -1 16 5 24 14 11 14 11 16 -1 9 -9 -6 -12 -5 -9 5 3 8 10 13 16 12 5
-1 16 5 24 14 11 14 11 16 -1 9 -9 -6 -12 -4 -9 5 3 8 11 14 19 14 8 0 13 8
11 19 -2 10 1 15 7 12 5 -3 19 8 31 26 21 31 21 32 1 9 -25 -28 -27 -20 -5 14
9 14 20 22 25 19 5 -3 6 2 3 11 -4 10 -2 15 6 13 6 -2 19 8 28 22 12 17 13 22
3 16 -9 -6 -12 -5 -9 5 3 8 10 13 16 12 6 -2 9 3 6 10 -2 7 3 21 11 32 15 19
16 19 5 -5 -11 -24 -11 -24 5 -5 9 11 23 34 31 50 14 27 14 28 -1 11 -25 -33
-17 -12 36 91 28 54 48 90 45 81 -9 -28 2 -21 19 13 9 17 14 33 11 37 -3 3 -6
-1 -6 -8 0 -7 -2 -11 -5 -8 -9 9 17 68 28 61 5 -3 7 -1 4 4 -4 6 15 77 42 159
27 82 52 166 56 186 4 21 10 36 14 34 3 -2 6 10 6 27 1 18 10 77 20 132 17 86
20 143 20 405 0 274 -2 318 -23 431 -12 69 -20 134 -16 145 4 13 3 15 -3 6 -7
-9 -13 3 -21 39 -14 58 -15 83 -2 54 14 -33 10 6 -5 45 -10 25 -14 29 -15 15
-1 -17 -3 -17 -11 5 -6 13 -7 36 -4 50 3 16 2 20 -3 12 -6 -9 -12 -1 -20 26
-16 52 -14 66 3 22 7 -19 14 -28 14 -20 1 21 -37 99 -39 80 0 -8 -12 12 -25
44 -26 62 -34 103 -10 51 8 -16 14 -23 14 -15 0 21 -48 109 -49 90 -1 -13 -2
-13 -9 0 -5 8 -12 26 -15 40 -6 19 -5 21 3 10 14 -20 14 -4 0 21 -5 11 -14 17
-19 14 -5 -3 -18 12 -30 34 -23 45 -25 55 -9 45 6 -3 3 8 -5 25 -18 34 -29 42
-19 14 10 -28 -1 -13 -46 60 -22 38 -38 73 -35 78 3 5 0 8 -7 7 -6 -2 -14 3
-17 11 -3 9 0 11 8 6 9 -5 11 -4 6 4 -4 6 -11 9 -16 6 -10 -6 -35 33 -35 55 0
8 -6 15 -14 15 -8 0 -16 6 -19 14 -3 9 0 11 9 5 12 -7 12 -5 1 9 -8 9 -19 15
-24 14 -6 -1 -13 4 -16 12 -3 10 0 11 9 5 8 -4 -3 12 -23 37 -20 24 -41 43
-47 42 -6 -2 -15 7 -21 20 -11 21 -10 21 4 3 9 -11 16 -15 16 -10 0 5 -19 28
-41 49 -23 22 -38 33 -34 25 6 -10 1 -8 -13 4 -24 21 -30 42 -9 30 6 -4 -22
28 -63 70 -71 73 -110 105 -59 49 13 -14 17 -23 9 -18 -26 14 -60 48 -55 55 2
4 -7 18 -22 31 -14 13 -23 18 -19 12 4 -7 3 -13 -2 -13 -12 0 -33 25 -27 32 3
3 -5 13 -17 24 -12 10 -18 13 -13 5 5 -9 3 -12 -6 -9 -8 3 -14 10 -14 18 0 7
-16 24 -34 39 -19 14 -31 20 -27 13 7 -11 4 -12 -13 -3 -11 7 -20 17 -18 23 1
7 -5 12 -13 13 -25 0 -91 46 -84 57 4 6 2 8 -4 4 -13 -8 -84 33 -77 44 3 4 -1
7 -8 7 -20 -2 -337 160 -329 168 4 5 1 5 -6 1 -17 -10 -54 3 -46 16 4 7 2 8
-5 4 -16 -10 -112 25 -104 37 3 6 1 7 -5 3 -6 -4 -69 9 -139 28 -238 66 -326
77 -638 82 -238 3 -298 1 -402 -16z m-918 -320 c-3 -5 -11 -10 -16 -10 -6 0
-7 5 -4 10 3 6 11 10 16 10 6 0 7 -4 4 -10z m-280 -190 c-3 -5 -11 -10 -16
-10 -6 0 -7 5 -4 10 3 6 11 10 16 10 6 0 7 -4 4 -10z m3575 -431 c0 -6 -4 -7
-10 -4 -5 3 -10 11 -10 16 0 6 5 7 10 4 6 -3 10 -11 10 -16z m-3765 -3469 c10
-11 16 -20 13 -20 -3 0 -13 9 -23 20 -10 11 -16 20 -13 20 3 0 13 -9 23 -20z
m3505 -26 c-8 -8 -23 -20 -34 -26 -19 -10 -18 -8 3 16 26 27 53 37 31 10z
m-145 -124 c-3 -5 -11 -10 -16 -10 -6 0 -7 5 -4 10 3 6 11 10 16 10 6 0 7 -4
4 -10z m-80 -60 c-3 -5 -11 -10 -16 -10 -6 0 -7 5 -4 10 3 6 11 10 16 10 6 0
7 -4 4 -10z"/>
<path d="M2008 5083 c7 -3 16 -2 19 1 4 3 -2 6 -13 5 -11 0 -14 -3 -6 -6z"/>
<path d="M1968 5073 c7 -3 16 -2 19 1 4 3 -2 6 -13 5 -11 0 -14 -3 -6 -6z"/>
<path d="M1740 5010 c-8 -5 -10 -10 -5 -10 6 0 17 5 25 10 8 5 11 10 5 10 -5
0 -17 -5 -25 -10z"/>
<path d="M1600 4960 c-8 -5 -10 -10 -5 -10 6 0 17 5 25 10 8 5 11 10 5 10 -5
0 -17 -5 -25 -10z"/>
<path d="M1474 4904 c-18 -14 -18 -14 6 -3 31 14 36 19 24 19 -6 0 -19 -7 -30
-16z"/>
<path d="M4660 4036 c0 -2 8 -10 18 -17 15 -13 16 -12 3 4 -13 16 -21 21 -21
13z"/>
<path d="M4751 3905 c12 -22 26 -44 32 -50 15 -16 -20 48 -38 70 -9 11 -7 2 6
-20z"/>
<path d="M363 3918 c-15 -20 -25 -38 -20 -38 3 0 12 11 21 25 17 26 16 35 -1
13z"/>
<path d="M310 3830 c-6 -11 -8 -20 -6 -20 3 0 10 9 16 20 6 11 8 20 6 20 -3 0
-10 -9 -16 -20z"/>
<path d="M146 3485 c-9 -26 -7 -32 5 -12 6 10 9 21 6 23 -2 3 -7 -2 -11 -11z"/>
<path d="M126 3435 c-9 -26 -7 -32 5 -12 6 10 9 21 6 23 -2 3 -7 -2 -11 -11z"/>
<path d="M61 3224 c0 -11 3 -14 6 -6 3 7 2 16 -1 19 -3 4 -6 -2 -5 -13z"/>
<path d="M5081 3074 c0 -11 3 -14 6 -6 3 7 2 16 -1 19 -3 4 -6 -2 -5 -13z"/>
<path d="M21 3044 c0 -11 3 -14 6 -6 3 7 2 16 -1 19 -3 4 -6 -2 -5 -13z"/>
<path d="M5092 3035 c0 -11 4 -33 8 -50 7 -27 8 -27 8 -5 0 14 -4 36 -8 50 -6
20 -8 21 -8 5z"/>
<path d="M12 2995 c0 -16 2 -22 5 -12 2 9 2 23 0 30 -3 6 -5 -1 -5 -18z"/>
<path d="M2 2940 c0 -14 2 -19 5 -12 2 6 2 18 0 25 -3 6 -5 1 -5 -13z"/>
<path d="M5112 2925 c0 -16 2 -22 5 -12 2 9 2 23 0 30 -3 6 -5 -1 -5 -18z"/>
<path d="M2 2190 c0 -14 2 -19 5 -12 2 6 2 18 0 25 -3 6 -5 1 -5 -13z"/>
<path d="M5112 2165 c0 -16 2 -22 5 -12 2 9 2 23 0 30 -3 6 -5 -1 -5 -18z"/>
<path d="M12 2125 c0 -16 2 -22 5 -12 2 9 2 23 0 30 -3 6 -5 -1 -5 -18z"/>
<path d="M5096 2089 c-4 -23 -5 -44 -2 -46 2 -2 7 14 11 37 4 23 5 43 2 46 -2
3 -7 -14 -11 -37z"/>
<path d="M21 2074 c0 -11 3 -14 6 -6 3 7 2 16 -1 19 -3 4 -6 -2 -5 -13z"/>
<path d="M5081 2014 c0 -11 3 -14 6 -6 3 7 2 16 -1 19 -3 4 -6 -2 -5 -13z"/>
<path d="M61 1900 c0 -8 4 -24 9 -35 5 -13 9 -14 9 -5 0 8 -4 24 -9 35 -5 13
-9 14 -9 5z"/>
<path d="M5051 1884 c0 -11 3 -14 6 -6 3 7 2 16 -1 19 -3 4 -6 -2 -5 -13z"/>
<path d="M120 1705 c0 -5 5 -17 10 -25 5 -8 10 -10 10 -5 0 6 -5 17 -10 25 -5
8 -10 11 -10 5z"/>
<path d="M4986 1685 c-9 -26 -7 -32 5 -12 6 10 9 21 6 23 -2 3 -7 -2 -11 -11z"/>
<path d="M140 1655 c0 -5 5 -17 10 -25 5 -8 10 -10 10 -5 0 6 -5 17 -10 25 -5
8 -10 11 -10 5z"/>
<path d="M4876 1423 c-6 -14 -5 -15 5 -6 7 7 10 15 7 18 -3 3 -9 -2 -12 -12z"/>
<path d="M240 1421 c0 -6 4 -13 10 -16 6 -3 7 1 4 9 -7 18 -14 21 -14 7z"/>
<path d="M4855 1389 c-4 -6 -5 -12 -2 -15 2 -3 7 2 10 11 7 17 1 20 -8 4z"/>
<path d="M3905 360 c-16 -11 -25 -20 -20 -20 10 0 64 39 55 40 -3 0 -18 -9
-35 -20z"/>
<path d="M3700 245 c-14 -8 -20 -14 -14 -15 5 0 19 7 30 15 24 18 16 19 -16 0z"/>
<path d="M3430 130 c-8 -5 -10 -10 -5 -10 6 0 17 5 25 10 8 5 11 10 5 10 -5 0
-17 -5 -25 -10z"/>
<path d="M3275 80 c-13 -6 -15 -9 -5 -9 8 0 22 4 30 9 18 12 2 12 -25 0z"/>
<path d="M3058 23 c7 -3 16 -2 19 1 4 3 -2 6 -13 5 -11 0 -14 -3 -6 -6z"/>
<path d="M3008 13 c6 -2 18 -2 25 0 6 3 1 5 -13 5 -14 0 -19 -2 -12 -5z"/>
<path d="M2958 3 c7 -3 16 -2 19 1 4 3 -2 6 -13 5 -11 0 -14 -3 -6 -6z"/>
</g>
</svg>
